<?xml version="1.0" standalone="no"?>
<!DOCTYPE svg PUBLIC "-//W3C//DTD SVG 20010904//EN"
 "http://www.w3.org/TR/2001/REC-SVG-20010904/DTD/svg10.dtd">
<svg version="1.0" xmlns="http://www.w3.org/2000/svg"
 width="256.000000pt" height="256.000000pt" viewBox="0 0 256.000000 256.000000"
 preserveAspectRatio="xMidYMid meet">
<metadata>
Created by potrace 1.14, written by Peter Selinger 2001-2017
</metadata>
<g transform="translate(0.000000,256.000000) scale(0.100000,-0.100000)"
fill="#000000" stroke="none">
<path d="M519 2341 c-40 -9 -93 -50 -116 -90 -39 -70 -19 -145 74 -273 l34
-48 -29 -60 c-38 -80 -40 -141 -7 -253 14 -48 25 -98 25 -111 0 -13 -16 -66
-36 -117 -60 -155 -57 -278 10 -357 12 -14 75 -80 142 -146 67 -67 128 -135
137 -153 21 -40 73 -188 81 -230 14 -72 94 -233 115 -233 4 0 17 -9 29 -20 12
-12 22 -18 22 -15 0 3 10 0 23 -7 12 -6 48 -13 79 -14 31 -1 62 -5 69 -10 8
-4 10 -3 5 4 -8 14 32 15 224 9 113 -4 163 10 214 59 31 30 87 127 92 160 5
33 79 255 96 289 11 22 73 92 137 155 64 64 128 129 142 146 31 37 58 104 62
159 4 48 -24 159 -58 233 -31 66 -31 97 1 197 17 54 24 98 23 135 -2 53 -33
148 -53 162 -5 3 -1 19 10 37 110 177 108 173 107 223 0 59 -23 104 -71 141
-31 24 -54 30 -115 30 -23 -1 -89 -34 -100 -50 -4 -7 -12 -13 -17 -13 -15 0
-68 -46 -195 -169 -97 -94 -146 -119 -247 -124 -25 -1 -44 -5 -42 -9 5 -8
-207 -8 -220 0 -5 3 -24 6 -42 8 -18 2 -52 8 -76 15 -24 7 -47 12 -51 11 -4
-1 -52 40 -105 92 -53 53 -108 105 -122 116 -14 12 -34 29 -45 38 -79 67 -150
95 -206 83z"/>
</g>
</svg>
