<?xml version="1.0" standalone="no"?>
<!DOCTYPE svg PUBLIC "-//W3C//DTD SVG 20010904//EN"
 "http://www.w3.org/TR/2001/REC-SVG-20010904/DTD/svg10.dtd">
<svg version="1.0" xmlns="http://www.w3.org/2000/svg"
 width="512.000000pt" height="512.000000pt" viewBox="0 0 512.000000 512.000000"
 preserveAspectRatio="xMidYMid meet">
<metadata>
Created by potrace 1.14, written by Peter Selinger 2001-2017
</metadata>
<g transform="translate(0.000000,512.000000) scale(0.100000,-0.100000)"
fill="#000000" stroke="none">
<path d="M1535 5113 c-38 -8 -100 -59 -129 -107 -26 -41 -30 -58 -30 -117 l-1
-69 -42 0 c-43 0 -82 -24 -84 -52 -1 -7 -2 -20 -3 -28 -1 -8 4 -40 10 -70 7
-30 17 -89 24 -130 16 -106 27 -134 60 -163 24 -22 28 -31 21 -54 -23 -85 38
-209 117 -242 27 -11 34 -29 111 -279 46 -147 94 -306 108 -354 l25 -86 -61
-71 c-39 -46 -61 -80 -61 -96 0 -23 24 -114 146 -552 l46 -163 -20 -27 c-55
-77 -61 -173 -18 -286 15 -38 24 -72 22 -76 -9 -15 -20 -244 -20 -436 0 -294
18 -587 49 -815 2 -19 7 -62 10 -95 3 -33 7 -67 10 -75 2 -8 7 -42 10 -75 4
-32 8 -62 10 -65 1 -3 6 -31 9 -63 4 -32 17 -116 30 -188 l22 -129 -210 0
c-116 0 -221 -3 -234 -6 -54 -15 -59 -109 -7 -132 19 -9 309 -12 1126 -12
l1100 0 24 25 c32 31 32 69 0 100 l-24 25 -314 0 -313 0 27 157 c15 87 30 181
33 208 4 28 8 61 11 75 4 26 9 61 21 145 3 28 8 58 10 68 2 10 6 46 9 80 3 35
8 71 9 82 6 31 20 169 19 175 -1 4 49 25 110 49 62 24 122 50 135 58 32 20 42
53 31 99 -5 22 -12 48 -14 59 -3 11 -15 65 -29 120 -13 55 -32 134 -41 175 -9
41 -21 87 -25 102 -8 25 0 40 78 145 48 65 92 125 99 133 64 79 327 438 332
453 18 49 3 65 -220 233 -230 173 -254 184 -296 147 -11 -10 -60 -71 -109
-137 l-88 -118 -27 114 c-30 123 -68 214 -118 277 -37 46 -37 45 -11 81 76
106 69 260 -19 415 -41 74 -43 136 -6 220 l25 55 99 0 c119 0 145 14 145 75 0
61 -26 75 -144 75 l-97 0 -18 48 c-10 26 -21 52 -26 57 -5 7 25 43 77 94 47
45 89 93 94 107 12 30 -1 67 -30 87 -37 25 -77 5 -170 -87 l-85 -85 -40 23
c-22 13 -64 29 -92 36 l-53 14 0 107 c0 59 -4 119 -9 132 -20 53 -120 50 -134
-4 -4 -13 -7 -72 -7 -130 l0 -105 -49 -13 c-27 -7 -68 -23 -92 -36 l-44 -24
-91 90 c-74 74 -96 90 -122 91 -52 2 -91 -48 -73 -94 5 -13 47 -61 94 -107
l84 -84 -26 -59 -26 -58 -85 0 -85 0 -73 201 c-73 200 -73 200 -52 217 16 14
27 50 50 177 16 88 30 172 30 187 0 27 -40 68 -66 68 -19 0 -18 7 6 40 35 49
80 154 80 187 0 22 -8 38 -26 52 -25 20 -39 21 -208 20 -99 -1 -190 -4 -201
-6z m662 -1350 c12 -32 24 -88 28 -125 3 -36 10 -80 16 -98 6 -17 10 -33 8
-34 -2 -2 -33 15 -68 39 -56 37 -64 47 -66 76 -1 19 -16 71 -33 117 l-31 82
62 0 62 0 22 -57z"/>
</g>
</svg>
