<?xml version="1.0" standalone="no"?>
<!DOCTYPE svg PUBLIC "-//W3C//DTD SVG 20010904//EN"
 "http://www.w3.org/TR/2001/REC-SVG-20010904/DTD/svg10.dtd">
<svg version="1.0" xmlns="http://www.w3.org/2000/svg"
 width="299.000000pt" height="299.000000pt" viewBox="0 0 299.000000 299.000000"
 preserveAspectRatio="xMidYMid meet">
<metadata>
Created by potrace 1.14, written by Peter Selinger 2001-2017
</metadata>
<g transform="translate(0.000000,299.000000) scale(0.100000,-0.100000)"
fill="#000000" stroke="none">
<path d="M1189 2208 c-1 -7 -2 -26 -3 -43 -1 -28 -4 -30 -46 -35 l-45 -5 0
-85 0 -85 -45 -5 -45 -5 0 -130 1 -130 90 -3 91 -3 -1 -44 -1 -45 -136 0 -135
0 1 -45 2 -45 -92 0 -92 0 1 -135 0 -135 92 0 91 0 1 28 c0 61 0 61 45 64 l42
3 0 43 0 43 45 -3 45 -3 0 -87 0 -88 -46 0 -45 0 0 -42 1 -43 -45 -5 -45 -5 0
-40 0 -40 -45 -5 -45 -5 0 -85 0 -85 45 -5 c45 -5 45 -5 45 -45 l0 -40 136 -3
135 -3 0 43 0 43 -46 5 c-42 5 -45 7 -46 35 -1 53 2 55 95 55 l88 0 -1 43 -1
42 135 0 135 0 1 -30 c1 -16 2 -36 3 -42 1 -10 53 -13 224 -13 l223 0 -1 168
c-1 92 1 173 3 180 2 7 21 12 46 12 l43 0 -1 88 -1 87 -225 5 -224 5 0 40 0
40 90 5 91 5 -2 30 c-3 48 4 55 50 55 l43 0 -2 43 -1 42 47 3 47 3 -2 42 c-3
42 -3 42 -47 47 l-44 5 0 43 0 42 -88 0 c-48 0 -88 3 -89 8 -1 4 -2 23 -3 42
l-1 35 91 5 90 5 0 40 -1 40 -135 5 -135 5 1 43 1 42 -223 0 c-172 0 -224 -3
-225 -12z m718 -932 l0 -45 -92 0 -91 0 2 42 c1 23 3 43 3 45 1 1 41 2 90 2
l88 0 0 -44z"/>
</g>
</svg>
