<?xml version="1.0" standalone="no"?>
<!DOCTYPE svg PUBLIC "-//W3C//DTD SVG 20010904//EN"
 "http://www.w3.org/TR/2001/REC-SVG-20010904/DTD/svg10.dtd">
<svg version="1.0" xmlns="http://www.w3.org/2000/svg"
 width="512.000000pt" height="512.000000pt" viewBox="0 0 512.000000 512.000000"
 preserveAspectRatio="xMidYMid meet">
<metadata>
Created by potrace 1.14, written by Peter Selinger 2001-2017
</metadata>
<g transform="translate(0.000000,512.000000) scale(0.100000,-0.100000)"
fill="#000000" stroke="none">
<path d="M2325 5109 c-499 -51 -945 -229 -1345 -537 -195 -150 -447 -431 -594
-662 -62 -98 -185 -349 -230 -471 -51 -138 -103 -343 -128 -504 -31 -200 -31
-550 0 -750 87 -556 329 -1034 726 -1430 210 -209 416 -360 662 -483 718 -359
1559 -361 2273 -6 269 133 459 271 677 488 220 221 358 413 489 681 89 182
137 308 181 480 110 429 111 843 4 1270 -48 191 -93 312 -185 500 -132 269
-269 460 -489 681 -400 399 -878 642 -1431 725 -151 23 -472 33 -610 18z m317
-2130 c220 -47 377 -268 339 -481 -33 -188 -171 -326 -359 -359 -169 -30 -360
69 -441 229 -85 169 -54 361 79 493 106 104 245 147 382 118z m-2277 -428
c304 -50 593 -78 918 -88 144 -4 220 -10 222 -17 1 -6 10 -51 19 -101 86 -450
470 -797 936 -844 531 -55 1036 321 1136 844 9 50 18 95 19 101 2 7 77 13 222
17 342 10 769 53 998 101 36 7 68 10 70 5 8 -13 -13 -282 -30 -389 -64 -387
-232 -767 -481 -1082 -86 -109 -306 -323 -419 -408 -335 -252 -716 -405 -1140
-461 -49 -6 -173 -12 -275 -12 -281 0 -485 33 -755 124 -321 108 -613 285
-861 521 -444 425 -695 973 -730 1597 -7 118 -6 123 12 118 10 -4 73 -15 139
-26z"/>
</g>
</svg>
